<?xml version="1.0" standalone="no"?>
<!DOCTYPE svg PUBLIC "-//W3C//DTD SVG 20010904//EN"
 "http://www.w3.org/TR/2001/REC-SVG-20010904/DTD/svg10.dtd">
<svg version="1.0" xmlns="http://www.w3.org/2000/svg"
 width="500.000000pt" height="500.000000pt" viewBox="0 0 500.000000 500.000000"
 preserveAspectRatio="xMidYMid meet">
<metadata>
Created by potrace 1.16, written by Peter Selinger 2001-2019
</metadata>
<g transform="translate(0.000000,500.000000) scale(0.100000,-0.100000)"
fill="#000000" stroke="none">
<path d="M1160 2750 l0 -600 475 0 475 0 0 90 0 90 -382 2 -383 3 -3 412 -2
413 1012 2 1013 3 0 90 0 90 -1102 3 -1103 2 0 -600z"/>
</g>
<g transform="translate(0.000000,500.000000) scale(0.100000,-0.100000)"
fill="#5e17eb" stroke="none">
<path d="M2160 2375 l0 -455 840 0 840 0 0 180 0 180 -210 0 -210 0 0 -65 0
-65 140 0 140 0 0 -45 0 -45 -705 0 -705 0 2 318 3 317 773 3 772 2 0 65 0 65
-840 0 -840 0 0 -455z"/>
</g>
<g transform="translate(0.000000,500.000000) scale(0.100000,-0.100000)"
fill="#000000" stroke="none">
<path d="M2820 2540 l0 -90 180 0 180 0 0 -60 0 -60 -415 0 -415 0 0 -90 0
-90 510 0 510 0 0 240 0 240 -275 0 -275 0 0 -90z"/>
<path d="M1511 1694 c-18 -23 -21 -41 -21 -128 0 -99 1 -103 28 -129 24 -23
37 -27 88 -27 34 0 66 5 73 13 11 10 14 10 18 0 3 -7 20 -13 39 -13 l35 0 -3
83 -3 82 -62 3 -63 3 0 -31 c0 -25 4 -30 25 -30 30 0 32 -11 6 -34 -13 -12
-32 -16 -58 -14 l-38 3 0 90 0 90 53 3 c47 3 52 1 52 -17 0 -18 6 -21 40 -21
37 0 40 2 40 28 0 17 -10 37 -23 50 -20 19 -35 22 -114 22 -87 0 -93 -1 -112
-26z"/>
<path d="M1950 1713 c0 -4 -20 -74 -44 -155 l-44 -148 43 0 c39 0 43 2 49 30
5 29 7 30 65 30 57 0 59 -1 65 -30 5 -27 9 -30 46 -30 22 0 40 3 40 8 0 4 -20
72 -43 152 l-43 145 -67 3 c-37 2 -67 -1 -67 -5z m90 -105 c7 -29 15 -59 17
-65 4 -9 -7 -13 -37 -13 -41 0 -42 1 -36 28 19 77 27 102 34 102 5 0 14 -24
22 -52z"/>
<path d="M2220 1690 c0 -28 2 -30 40 -30 l40 0 0 -125 0 -125 40 0 39 0 3 123
3 122 43 3 c39 3 42 5 42 33 l0 29 -125 0 -125 0 0 -30z"/>
<path d="M2550 1565 l0 -155 40 0 40 0 0 65 0 65 50 0 50 0 0 -65 0 -65 40 0
40 0 0 155 0 155 -40 0 -40 0 0 -55 0 -55 -50 0 -50 0 0 55 0 55 -40 0 -40 0
0 -155z"/>
<path d="M2910 1565 l0 -155 120 0 120 0 0 30 0 30 -80 0 -80 0 0 35 0 35 70
0 70 0 0 30 0 30 -70 0 -70 0 0 30 0 30 80 0 80 0 0 30 0 30 -120 0 -120 0 0
-155z"/>
<path d="M3240 1565 l0 -155 40 0 40 0 0 56 0 55 36 -3 c34 -3 38 -7 57 -55
19 -52 21 -53 59 -53 34 0 39 3 33 18 -39 95 -40 100 -22 120 12 13 17 36 17
74 0 44 -4 59 -23 76 -21 20 -34 22 -130 22 l-107 0 0 -155z m180 55 l0 -40
-50 0 -50 0 0 40 0 40 50 0 50 0 0 -40z"/>
</g>
<g transform="translate(0.000000,500.000000) scale(0.100000,-0.100000)"
fill="#5e17eb" stroke="none">
<path d="M2152 1298 c-17 -17 -16 -123 2 -137 7 -6 36 -10 65 -9 l51 2 0 38
c0 36 -2 38 -30 38 -16 0 -30 -4 -30 -10 0 -5 7 -10 16 -10 29 0 8 -25 -24
-28 l-32 -3 0 50 0 51 35 0 c19 0 35 -4 35 -10 0 -5 7 -10 15 -10 8 0 15 6 15
13 0 24 -23 37 -65 37 -23 0 -46 -5 -53 -12z"/>
<path d="M2375 1298 c-2 -7 -13 -43 -23 -80 -19 -65 -19 -68 -2 -68 10 0 20 9
23 20 4 14 14 20 35 20 22 0 32 -6 37 -20 3 -11 13 -20 21 -20 18 0 18 -2 -8
86 -20 70 -23 74 -50 74 -16 0 -30 -6 -33 -12z m49 -50 c7 -36 5 -41 -21 -36
-17 3 -18 8 -11 36 11 41 24 41 32 0z"/>
<path d="M2530 1230 c0 -64 3 -80 15 -80 11 0 15 12 16 48 l1 47 19 -42 c11
-24 23 -43 27 -43 4 0 15 19 24 43 l17 42 0 -47 c1 -36 5 -48 16 -48 12 0 15
16 15 80 0 97 -16 106 -50 28 l-23 -53 -23 53 c-36 80 -54 70 -54 -28z"/>
<path d="M2740 1230 l0 -80 60 0 c47 0 60 3 60 15 0 11 -11 15 -40 15 -33 0
-40 3 -40 20 0 16 7 20 35 20 19 0 35 5 35 10 0 6 -16 10 -35 10 -28 0 -35 4
-35 20 0 17 7 20 40 20 29 0 40 4 40 15 0 12 -13 15 -60 15 l-60 0 0 -80z"/>
</g>
</svg>
